<svg width="229" height="138" viewBox="0 0 229 138" fill="none" xmlns="http://www.w3.org/2000/svg">
<path d="M50.1244 16.368H60.1084V48H50.1244V16.368ZM36.3964 12H73.8364V20.832H36.3964V12ZM96.4485 48.768C92.1925 48.768 88.4485 47.984 85.2165 46.416C82.0165 44.848 79.5205 42.656 77.7285 39.84C75.9685 37.024 75.0885 33.744 75.0885 30C75.0885 26.256 75.9685 22.976 77.7285 20.16C79.5205 17.344 82.0165 15.152 85.2165 13.584C88.4485 12.016 92.1925 11.232 96.4485 11.232C100.737 11.232 104.481 12.016 107.681 13.584C110.881 15.152 113.377 17.344 115.169 20.16C116.961 22.976 117.857 26.256 117.857 30C117.857 33.744 116.961 37.024 115.169 39.84C113.377 42.656 110.881 44.848 107.681 46.416C104.481 47.984 100.737 48.768 96.4485 48.768ZM96.4485 39.888C98.7845 39.888 100.801 39.488 102.497 38.688C104.193 37.888 105.489 36.752 106.385 35.28C107.313 33.808 107.777 32.048 107.777 30C107.777 27.952 107.313 26.192 106.385 24.72C105.489 23.248 104.193 22.112 102.497 21.312C100.801 20.512 98.7845 20.112 96.4485 20.112C94.1445 20.112 92.1445 20.512 90.4485 21.312C88.7525 22.112 87.4405 23.248 86.5125 24.72C85.5845 26.192 85.1205 27.952 85.1205 30C85.1205 32.048 85.5845 33.808 86.5125 35.28C87.4405 36.752 88.7525 37.888 90.4485 38.688C92.1445 39.488 94.1445 39.888 96.4485 39.888ZM132.403 48V30.48H142.387V48H132.403ZM115.507 12H126.547L139.603 28.608H135.139L148.147 12H159.187L140.563 35.664L134.179 35.76L115.507 12Z" fill="black"/>
<path d="M48.6869 94.368H58.6709V126H48.6869V94.368ZM34.9589 90H72.3989V98.832H34.9589V90ZM95.011 126.768C90.755 126.768 87.011 125.984 83.779 124.416C80.579 122.848 78.083 120.656 76.291 117.84C74.531 115.024 73.651 111.744 73.651 108C73.651 104.256 74.531 100.976 76.291 98.16C78.083 95.344 80.579 93.152 83.779 91.584C87.011 90.016 90.755 89.232 95.011 89.232C99.299 89.232 103.043 90.016 106.243 91.584C109.443 93.152 111.939 95.344 113.731 98.16C115.523 100.976 116.419 104.256 116.419 108C116.419 111.744 115.523 115.024 113.731 117.84C111.939 120.656 109.443 122.848 106.243 124.416C103.043 125.984 99.299 126.768 95.011 126.768ZM95.011 117.888C97.347 117.888 99.363 117.488 101.059 116.688C102.755 115.888 104.051 114.752 104.947 113.28C105.875 111.808 106.339 110.048 106.339 108C106.339 105.952 105.875 104.192 104.947 102.72C104.051 101.248 102.755 100.112 101.059 99.312C99.363 98.512 97.347 98.112 95.011 98.112C92.707 98.112 90.707 98.512 89.011 99.312C87.315 100.112 86.003 101.248 85.075 102.72C84.147 104.192 83.683 105.952 83.683 108C83.683 110.048 84.147 111.808 85.075 113.28C86.003 114.752 87.315 115.888 89.011 116.688C90.707 117.488 92.707 117.888 95.011 117.888ZM165.448 121.776H162.328L171.304 90H181.816L170.872 126H158.056L147.64 95.28H151.72L141.256 126H128.488L117.496 90H128.056L137.032 121.776L133.96 121.728L144.424 90H154.936L165.448 121.776ZM219.033 119.04L215.961 119.664V90H225.609V126H213.081L192.297 96.384L195.321 95.76V126H185.673V90H198.537L219.033 119.04Z" fill="black"/>
<path d="M34 79C36 79 193.4 79 211 79C228.6 79 208 39 158 46" stroke="url(#paint0_linear_2_12)" stroke-width="7"/>
<path d="M34 60H162" stroke="#FF0000" stroke-width="3"/>
<path d="M173 61.5C173 59.7761 172.315 58.1228 171.096 56.9038C169.877 55.6848 168.224 55 166.5 55C164.776 55 163.123 55.6848 161.904 56.9038C160.685 58.1228 160 59.7761 160 61.5L166.5 61.5H173Z" fill="url(#paint1_linear_2_12)"/>
<defs>
<linearGradient id="paint0_linear_2_12" x1="34" y1="62.0889" x2="217.194" y2="62.0889" gradientUnits="userSpaceOnUse">
<stop stop-color="#FF0000"/>
<stop offset="1" stop-color="#990000"/>
</linearGradient>
<linearGradient id="paint1_linear_2_12" x1="166.5" y1="55" x2="166.5" y2="68" gradientUnits="userSpaceOnUse">
<stop stop-color="#FF0000"/>
<stop offset="1" stop-color="#990000"/>
</linearGradient>
</defs>
</svg>
